<?xml version="1.0" encoding="utf-8"?>
<!-- Generator: Adobe Illustrator 17.0.0, SVG Export Plug-In . SVG Version: 6.00 Build 0)  -->
<!DOCTYPE svg PUBLIC "-//W3C//DTD SVG 1.1//EN" "http://www.w3.org/Graphics/SVG/1.1/DTD/svg11.dtd">
<svg version="1.1" id="Capa_1" xmlns="http://www.w3.org/2000/svg" xmlns:xlink="http://www.w3.org/1999/xlink" x="0px" y="0px"
	 width="200px" height="50px" viewBox="0 0 200 50" enable-background="new 0 0 200 50" xml:space="preserve">
<rect x="3.579" y="1.649" opacity="0.8" fill="#426CAE" width="28.018" height="6.606"/>
<rect x="3.579" y="10.697" opacity="0.8" fill="#426CAE" width="28.018" height="6.606"/>
<rect x="3.579" y="19.305" opacity="0.8" fill="#426CAE" width="28.018" height="6.606"/>
<rect x="3.579" y="27.884" opacity="0.8" fill="#426CAE" width="28.018" height="6.606"/>
<rect x="3.579" y="35.918" opacity="0.8" fill="#426CAE" width="28.018" height="6.606"/>
<g opacity="0.8">
	<polygon fill="#1E5176" stroke="#FAFAFA" stroke-miterlimit="10" points="48.329,12.765 20.311,12.765 22.081,6.159 50.099,6.159 	
		"/>
	<polygon fill="#1E5176" stroke="#FAFAFA" stroke-miterlimit="10" points="46.356,21.608 18.338,21.608 20.108,15.002 
		48.126,15.002 	"/>
	<polygon fill="#1E5176" stroke="#FAFAFA" stroke-miterlimit="10" points="43.506,30.214 15.488,30.214 17.258,23.608 
		45.276,23.608 	"/>
	<polygon fill="#1E5176" stroke="#FAFAFA" stroke-miterlimit="10" points="41.126,39.096 13.108,39.096 14.878,32.49 42.896,32.49 	
		"/>
	<polygon fill="#1E5176" stroke="#FAFAFA" stroke-miterlimit="10" points="37.866,49 9.848,49 11.618,42.394 39.636,42.394 	"/>
</g>
<text transform="matrix(1 0 0 1 51.0996 18.3051)"><tspan x="0" y="0" fill="#1E5176" font-family="'ChaparralPro-Bold'" font-size="20">Administradora</tspan><tspan x="0" y="25.4" fill="#1E5176" font-family="'ChaparralPro-Bold'" font-size="32">SAC, c.a</tspan></text>
</svg>
